<?xml version="1.0" encoding="UTF-8"?>
<svg xmlns="http://www.w3.org/2000/svg" xmlns:xlink="http://www.w3.org/1999/xlink" width="100pt" height="100pt" viewBox="0 0 100 100" version="1.1">
<g id="surface1">
<path style=" stroke:none;fill-rule:nonzero;fill:rgb(100%,0%,0%);fill-opacity:1;" d="M 50 0 C 22.386719 0 0 22.386719 0 50 C 0 77.613281 22.386719 100 50 100 C 77.613281 100 100 77.613281 100 50 C 100 22.386719 77.613281 0 50 0 Z M 25.195312 18.035156 C 32.289062 12.523438 41.015625 9.527344 50 9.523438 C 72.355469 9.523438 90.476562 27.644531 90.476562 50 C 90.472656 58.984375 87.476562 67.710938 81.964844 74.804688 Z M 74.804688 81.964844 C 67.710938 87.476562 58.984375 90.472656 50 90.476562 C 27.644531 90.476562 9.523438 72.355469 9.523438 50 C 9.527344 41.015625 12.523438 32.289062 18.035156 25.195312 Z M 74.804688 81.964844 "/>
</g>
</svg>
