<?xml version="1.0"?>
<svg xmlns="http://www.w3.org/2000/svg" xmlns:xlink="http://www.w3.org/1999/xlink" xmlns:svgjs="http://svgjs.com/svgjs" version="1.1" width="512" height="512" x="0" y="0" viewBox="0 0 488 488" style="enable-background:new 0 0 512 512" xml:space="preserve" class=""><g>
<g xmlns="http://www.w3.org/2000/svg">
	<g>
		<path d="M404,184h-73.752l-11.464-45.824C316.12,127.48,306.536,120,295.504,120H192.496c-11.032,0-20.616,7.48-23.288,18.176    L157.752,184H84c-22.056,0-40,17.944-40,40v176c0,22.056,17.944,40,40,40h320c22.056,0,40-17.944,40-40V224    C444,201.944,426.056,184,404,184z M428,400c0,13.232-10.768,24-24,24H84c-13.232,0-24-10.768-24-24V224c0-13.232,10.768-24,24-24    h80c3.672,0,6.864-2.496,7.76-6.056l12.968-51.88c0.896-3.568,4.088-6.064,7.768-6.064h103.016c3.672,0,6.864,2.496,7.76,6.064    l12.968,51.88c0.896,3.56,4.088,6.056,7.76,6.056h80c13.232,0,24,10.768,24,24V400z" fill="#931c20" data-original="#000000" style="" class=""/>
	</g>
</g>
<g xmlns="http://www.w3.org/2000/svg">
	<g>
		<path d="M244,216c-52.936,0-96,43.064-96,96c0,52.936,43.064,96,96,96c52.936,0,96-43.064,96-96C340,259.064,296.936,216,244,216z     M244,392c-44.112,0-80-35.888-80-80s35.888-80,80-80s80,35.888,80,80S288.112,392,244,392z" fill="#931c20" data-original="#000000" style="" class=""/>
	</g>
</g>
<g xmlns="http://www.w3.org/2000/svg">
	<g>
		<path d="M244,248c-35.288,0-64,28.712-64,64c0,35.288,28.712,64,64,64c35.288,0,64-28.712,64-64C308,276.712,279.288,248,244,248z     M244,360c-26.472,0-48-21.528-48-48s21.528-48,48-48s48,21.528,48,48S270.472,360,244,360z" fill="#931c20" data-original="#000000" style="" class=""/>
	</g>
</g>
<g xmlns="http://www.w3.org/2000/svg">
	<g>
		<path d="M12,80c-4.424,0-8,3.584-8,8v80h16V96h72V80H12z" fill="#931c20" data-original="#000000" style="" class=""/>
	</g>
</g>
<g xmlns="http://www.w3.org/2000/svg">
	<g>
		<path d="M468,400v72h-72v16h80c4.424,0,8-3.584,8-8v-80H468z" fill="#931c20" data-original="#000000" style="" class=""/>
	</g>
</g>
<g xmlns="http://www.w3.org/2000/svg">
	<g>
		<path d="M20,472v-72H4v80c0,4.416,3.576,8,8,8h80v-16H20z" fill="#931c20" data-original="#000000" style="" class=""/>
	</g>
</g>
<g xmlns="http://www.w3.org/2000/svg">
	<g>
		<path d="M124,216H84c-4.424,0-8,3.584-8,8v40c0,4.416,3.576,8,8,8h40c4.424,0,8-3.584,8-8v-40C132,219.584,128.424,216,124,216z     M116,256H92v-24h24V256z" fill="#931c20" data-original="#000000" style="" class=""/>
	</g>
</g>
<g xmlns="http://www.w3.org/2000/svg">
	<g>
		<path d="M476,48c-17.648,0-32-14.352-32-32c0-4.416-3.576-8-8-8s-8,3.584-8,8c0,17.648-14.352,32-32,32c-4.424,0-8,3.584-8,8    s3.576,8,8,8c17.648,0,32,14.352,32,32c0,4.416,3.576,8,8,8s8-3.584,8-8c0-17.648,14.352-32,32-32c4.424,0,8-3.584,8-8    S480.424,48,476,48z M436,69.496c-3.552-5.344-8.152-9.944-13.496-13.496c5.344-3.552,9.944-8.152,13.496-13.496    c3.552,5.344,8.152,9.944,13.496,13.496C444.152,59.552,439.552,64.152,436,69.496z" fill="#931c20" data-original="#000000" style="" class=""/>
	</g>
</g>
<g xmlns="http://www.w3.org/2000/svg">
	<g>
		<path d="M404,96c-17.648,0-32-14.352-32-32c0-4.416-3.576-8-8-8s-8,3.584-8,8c0,17.648-14.352,32-32,32c-4.424,0-8,3.584-8,8    s3.576,8,8,8c17.648,0,32,14.352,32,32c0,4.416,3.576,8,8,8s8-3.584,8-8c0-17.648,14.352-32,32-32c4.424,0,8-3.584,8-8    S408.424,96,404,96z M364,117.496c-3.552-5.344-8.152-9.936-13.496-13.496c5.344-3.552,9.944-8.152,13.496-13.496    c3.552,5.344,8.152,9.936,13.496,13.496C372.152,107.552,367.56,112.152,364,117.496z" fill="#931c20" data-original="#000000" style="" class=""/>
	</g>
</g>
<g xmlns="http://www.w3.org/2000/svg">
	<g>
		<path d="M332,40c-17.648,0-32-14.352-32-32c0-4.416-3.576-8-8-8s-8,3.584-8,8c0,17.648-14.352,32-32,32c-4.424,0-8,3.584-8,8    s3.576,8,8,8c17.648,0,32,14.352,32,32c0,4.416,3.576,8,8,8s8-3.584,8-8c0-17.648,14.352-32,32-32c4.424,0,8-3.584,8-8    S336.424,40,332,40z M292,61.496c-3.552-5.344-8.152-9.944-13.496-13.496c5.344-3.552,9.944-8.152,13.496-13.496    c3.552,5.344,8.152,9.944,13.496,13.496C300.152,51.552,295.552,56.152,292,61.496z" fill="#931c20" data-original="#000000" style="" class=""/>
	</g>
</g>
<g xmlns="http://www.w3.org/2000/svg">
</g>
<g xmlns="http://www.w3.org/2000/svg">
</g>
<g xmlns="http://www.w3.org/2000/svg">
</g>
<g xmlns="http://www.w3.org/2000/svg">
</g>
<g xmlns="http://www.w3.org/2000/svg">
</g>
<g xmlns="http://www.w3.org/2000/svg">
</g>
<g xmlns="http://www.w3.org/2000/svg">
</g>
<g xmlns="http://www.w3.org/2000/svg">
</g>
<g xmlns="http://www.w3.org/2000/svg">
</g>
<g xmlns="http://www.w3.org/2000/svg">
</g>
<g xmlns="http://www.w3.org/2000/svg">
</g>
<g xmlns="http://www.w3.org/2000/svg">
</g>
<g xmlns="http://www.w3.org/2000/svg">
</g>
<g xmlns="http://www.w3.org/2000/svg">
</g>
<g xmlns="http://www.w3.org/2000/svg">
</g>
</g></svg>
