<?xml version="1.0"?>
<svg xmlns="http://www.w3.org/2000/svg" xmlns:xlink="http://www.w3.org/1999/xlink" xmlns:svgjs="http://svgjs.com/svgjs" version="1.1" width="512" height="512" x="0" y="0" viewBox="0 0 60 60" style="enable-background:new 0 0 512 512" xml:space="preserve"><g><g xmlns="http://www.w3.org/2000/svg" id="Page-1" fill="none" fill-rule="evenodd"><g id="063---Scrap-Car" fill="rgb(0,0,0)" fill-rule="nonzero" transform="translate(-1)"><path id="Shape" d="m10.5 41.937c.2102528.0000911.4200912-.0186505.627-.056 1.8456536-.3338457 3.1019341-2.0607886 2.8513314-3.9195754-.2506028-1.8587868-1.9193709-3.1913728-3.7875384-3.0245189-1.86816751.1668539-3.27436879 1.7740783-3.19160064 3.6478551s1.6252043 3.3507545 3.50080764 3.3522392zm-1.239-4.337c.22616523-.3281442.5745111-.5518493.967-.621.0890352-.0166509.1794212-.02502.27-.025.7239749-.0015623 1.3457553.514204 1.478 1.226.0703942.3902109-.0174318.7923934-.2440842 1.1177372-.2266525.3253438-.5734871.5470865-.9639158.6162628-.81397483.1508881-1.59629871-.3861763-1.748-1.2-.0721766-.3886249.01464686-.7899583.241-1.114z" fill="#931c20" data-original="#000000" style=""/><path id="Shape" d="m50.529 34.489c.2102303-.0004097.4200246-.0191473.627-.056 1.8451016-.3337949 3.1009765-2.0602501 2.8504236-3.9184863-.2505528-1.8582363-1.9188349-3.1904167-3.7864523-3.0236119-1.8676175.1668047-3.2734123 1.7735438-3.1906926 3.6467699.0827197 1.8732262 1.6246703 3.3497959 3.4997213 3.3513283zm-1.235-4.341c.2272977-.3267893.5751688-.5498297.967-.62.0891312-.0158339.1794734-.0238643.27-.024.723285-.0011686 1.3443985.513973 1.477 1.225.0706876.3903626-.016999.7928047-.2436785 1.1183751-.2266796.3255704-.5736862.54746-.9643215.6166249-.8136263.150272-1.5952834-.3866419-1.747-1.2-.0726199-.3892672.0142181-.7913886.241-1.116z" fill="#931c20" data-original="#000000" style=""/><path id="Shape" d="m17.105 37.419c.2643783 1.4237249 1.5059368 2.4568159 2.954 2.458.1797315-.0001863.3590952-.0162488.536-.048l21.662-3.929c.7825566-.1409101 1.47696-.5872247 1.9301575-1.2405719s.6279867-1.4600947.4858425-2.2424281l-.358-1.962c-.3032052-1.6254686-1.8615609-2.7014443-3.489-2.409l-21.663 3.929c-1.6276481.2959834-2.7084905 1.8537206-2.416 3.482zm12.979-1.343-3.94.714-.715-3.917 3.939-.714zm1.253-4.276 3.939-.714.716 3.917-3.94.714zm9.846-1.784c.0592907-.0116017.1195856-.0172962.18-.017.4821068-.0009996.8962932.3421234.985.816l.358 1.962c.0468234.2602271-.0118544.5283896-.1630781.7452812s-.3825559.3646739-.6429219.4107188l-3.94.714-.716-3.918zm-22.308 4.34c.151297-.2185619.3833879-.3678917.645-.415l3.941-.714.715 3.918-3.937.713c-.5428822.1010032-1.0648763-.2571403-1.166-.8l-.358-1.958c-.0488532-.2587889.0088399-.5263406.16-.742z" fill="#931c20" data-original="#000000" style=""/><path id="Shape" d="m26.873 15.358-2.828-1.245c-.6085682-.2695283-1.3118134-.2154325-1.872.144l-2.856 1.826-.678-3.852 2.142-1.2c.4815923-.2708957.6523957-.8809077.3815-1.3625s-.8809077-.65239567-1.3625-.3815l-2.141 1.2c-.7526196.422884-1.1541746 1.27659-1 2.126l.592 3.32-2.212-1.133c-.5903665-.3008678-1.2919969-.2869852-1.87.037l-2.315 1.295c-.3118929.1743456-.5070815.5018405-.5120402.8591204-.0049587.35728.1810658.6900657.488.873.3069342.1829344.6881473.1882252 1.0000402.0138796l2.3-1.3 2.339 1.192-3.549 1.992c-.4660084.2588043-.8094214.6929303-.954 1.206l-1.137 3.974c-.0733874.2552767-.0421996.5292623.0866835.7615145s.3448712.403687.6003165.4764855c.0895615.0248757.1820487.0376558.275.038.4462082-.0001982.8382928-.2959957.961-.725l1.148-3.985 4.229-2.365 1.1 2.47c.2022418.457529.5676685.8233121 1.025 1.026l2.957 1.3c.328281.152151.713146.1151013 1.0063732-.0968801s.4490734-.5658256.4075179-.9252578c-.0415554-.3594321-.2740298-.668381-.6078911-.8078621l-2.969-1.309-1.193-2.689 3.382-2.171 2.829 1.246c.326898.1441567.7058709.1029649.9941633-.1080587.2882923-.2110237.4421057-.5598197.4035-.915-.0386057-.3551804-.2637653-.6627846-.5906633-.8069413z" fill="#931c20" data-original="#000000" style=""/><path id="Shape" d="m58 50h-.107c.6669465-.6887359.9613775-1.6565244.791-2.6l-.87-4.736.781-.142c1.6117332-.3183044 2.663883-1.8784348 2.355-3.492l-2.55-14.11c-.2492999-1.477022-1.5540241-2.5409859-3.051-2.488-.281.013-.561.039-.842.054l-9.914-20.764c-.5824896-1.22441645-1.9106773-1.90937832-3.246-1.674l-32.454 6.021c-1.32832939.25858516-2.32629023 1.36331029-2.449 2.711l-2.091 22.82c-.439.14-.883.263-1.321.406-1.41355641.4836012-2.25769286 1.9316658-1.982 3.4l2.01 11.112v.033c0 .012.009.021.012.033l.528 2.932c.03317123.173735.08100914.3443458.143.51-1.54736809.1296958-2.73856848 1.4212124-2.743 2.974v4c0 1.6568542 1.34314575 3 3 3h54c1.6568542 0 3-1.3431458 3-3v-4c0-1.6568542-1.3431458-3-3-3zm-11.994-5.177.861 4.717c.0315323.1567484.0760183.3106098.133.46h-29.294zm10.711 2.938c.0936631.5386877-.2626907 1.0527281-.8 1.154l-5.9 1.069c-.2620568.051159-.5336898-.0046058-.7543949-.1548731s-.3721513-.3825565-.4206051-.6451269l-.861-4.717 7.874-1.441zm-48.281-38.802c.03563956-.45930279.37444418-.83784628.827-.924l32.444-6.019c.4474797-.08146403.8930328.1518228 1.081.566l1.012 2.118-6.3 5.265c-.1295369.1087621-.284827.1824474-.451.214l-4.406.821c-.5073002.0947444-.8591825.559966-.8122726 1.0739013s.4772026.9077633.9932726.9090987c.0613514.0000489.1225879-.0053051.183-.016l4.414-.819c.5045013-.0948998.976211-.3176707 1.37-.647l5.9-4.935 3.238 6.784-6.11 1.132c-.4019259.0752336-.7841407.2321357-1.123.461l-6.013 4.057c-.4583963.308451-.579951.9301036-.2715 1.3885.3084511.4583963.9301037.579951 1.3885.2715l6.016-4.06c.1107792-.0754734.2361365-.1269108.368-.151l6.636-1.23 3.534 7.4c-15.5852009.9760917-31.0021618 3.7765515-45.935 8.344zm-4.786 24.941c16.7641942-5.450447 34.1817947-8.635322 51.79-9.47.4932324-.0010285.9135499.3577273.99.845l1.837 10.156-48.009 8.788c-.50219601.0990347-.84852934.5613056-.80246544 1.0710966.04606389.5097909.46965123.9024931.98146544.9099034.0606903.0000887.1212664-.0052661.181-.016l48.005-8.784.359 1.985c.1147538.5287713-.2189464 1.0509876-.747 1.169l-51.56 9.431c-.23606991.0391691-.47812087-.0149786-.675-.151-.22636249-.1588842-.38004069-.4014583-.427-.674l-.36-1.99 1.464-.27c.35847259-.057425.65766514-.3046208.78167464-.6458273.12400949-.3412065.05335447-.7228213-.18459431-.9970121-.23794877-.2741908-.60581036-.3978833-.96108033-.3231606l-1.459.266-1.836-10.148c-.106575-.4879447.16321092-.9797064.632-1.152zm55.35 23.1c0 .5522847-.4477153 1-1 1h-54c-.55228475 0-1-.4477153-1-1v-4c0-.5522847.44771525-1 1-1h54c.5522847 0 1 .4477153 1 1z" fill="#931c20" data-original="#000000" style=""/></g></g></g></svg>
