<?xml version="1.0"?>
<svg xmlns="http://www.w3.org/2000/svg" xmlns:xlink="http://www.w3.org/1999/xlink" xmlns:svgjs="http://svgjs.com/svgjs" version="1.1" width="512" height="512" x="0" y="0" viewBox="0 0 64 64" style="enable-background:new 0 0 512 512" xml:space="preserve"><g><g xmlns="http://www.w3.org/2000/svg"><path d="m4 18v28c0 .553.447 1 1 1h54c.553 0 1-.447 1-1v-28c0-.553-.447-1-1-1h-54c-.553 0-1 .447-1 1zm2 1h52v26h-52z" fill="#931c20" data-original="#000000" style=""/><path d="m3 16h5v-2h-6c-.553 0-1 .447-1 1v6h2z" fill="#931c20" data-original="#000000" style=""/><path d="m62 14h-6v2h5v5h2v-6c0-.553-.447-1-1-1z" fill="#931c20" data-original="#000000" style=""/><path d="m61 48h-5v2h6c.553 0 1-.447 1-1v-6h-2z" fill="#931c20" data-original="#000000" style=""/><path d="m3 43h-2v6c0 .553.447 1 1 1h6v-2h-5z" fill="#931c20" data-original="#000000" style=""/><path d="m7 20h4v24h-4z" fill="#931c20" data-original="#000000" style=""/><path d="m30 20h4v24h-4z" fill="#931c20" data-original="#000000" style=""/><path d="m50 20h4v24h-4z" fill="#931c20" data-original="#000000" style=""/><path d="m12 20h2v22h-2z" fill="#931c20" data-original="#000000" style=""/><path d="m15 20h2v22h-2z" fill="#931c20" data-original="#000000" style=""/><path d="m18 20h2v22h-2z" fill="#931c20" data-original="#000000" style=""/><path d="m27 20h2v22h-2z" fill="#931c20" data-original="#000000" style=""/><path d="m21 20h1v22h-1z" fill="#931c20" data-original="#000000" style=""/><path d="m23 20h1v22h-1z" fill="#931c20" data-original="#000000" style=""/><path d="m25 20h1v22h-1z" fill="#931c20" data-original="#000000" style=""/><path d="m35 20h2v22h-2z" fill="#931c20" data-original="#000000" style=""/><path d="m38 20h2v22h-2z" fill="#931c20" data-original="#000000" style=""/><path d="m47 20h2v22h-2z" fill="#931c20" data-original="#000000" style=""/><path d="m55 20h2v22h-2z" fill="#931c20" data-original="#000000" style=""/><path d="m41 20h1v22h-1z" fill="#931c20" data-original="#000000" style=""/><path d="m43 20h1v22h-1z" fill="#931c20" data-original="#000000" style=""/><path d="m45 20h1v22h-1z" fill="#931c20" data-original="#000000" style=""/></g></g></svg>
